<?xml version="1.0" encoding="iso-8859-1"?>
<!-- Generator: Adobe Illustrator 18.0.0, SVG Export Plug-In . SVG Version: 6.00 Build 0)  -->
<!DOCTYPE svg PUBLIC "-//W3C//DTD SVG 1.1//EN" "http://www.w3.org/Graphics/SVG/1.1/DTD/svg11.dtd">
<svg version="1.1" id="Capa_1" xmlns="http://www.w3.org/2000/svg" xmlns:xlink="http://www.w3.org/1999/xlink" x="0px" y="0px"
	 viewBox="0 0 297 297" style="enable-background:new 0 0 297 297;" xml:space="preserve">
<g>
	<path d="M148.5,88.731c20.705,0,37.551-16.845,37.551-37.546c0-18.079-23.334-41.594-30.486-48.37
		c-3.96-3.754-10.169-3.754-14.129,0c-7.151,6.776-30.485,30.291-30.485,48.37C110.95,71.887,127.795,88.731,148.5,88.731z
		 M148.505,24.956c9,9.873,17.006,21.245,17.006,26.229c0,9.378-7.633,17.006-17.011,17.006s-17.011-7.628-17.011-17.006
		C131.489,46.221,139.501,34.843,148.505,24.956z"/>
	<path d="M256.98,194.322c-0.022-0.021-0.035-0.047-0.059-0.067l-47.31-41.14v-29.211c0-5.669-4.599-10.269-10.271-10.269H97.66
		c-5.673,0-10.271,4.6-10.271,10.269v29.211l-47.31,41.14c-0.022,0.02-0.037,0.048-0.061,0.069c-2.124,1.88-3.468,4.621-3.468,7.679
		v84.726c0,5.673,4.598,10.272,10.271,10.272h203.357c5.673,0,10.271-4.599,10.271-10.272v-84.726
		C260.449,198.944,259.104,196.203,256.98,194.322z M101.503,168.064h93.994l27.223,23.671H74.281L101.503,168.064z
		 M107.931,134.176h81.14v13.351h-81.14V134.176z M239.909,276.459H57.091v-64.184h182.818V276.459z"/>
</g>
<g>
</g>
<g>
</g>
<g>
</g>
<g>
</g>
<g>
</g>
<g>
</g>
<g>
</g>
<g>
</g>
<g>
</g>
<g>
</g>
<g>
</g>
<g>
</g>
<g>
</g>
<g>
</g>
<g>
</g>
</svg>
